<?xml version="1.0" encoding="UTF-8"?>
<svg width="9px" height="8px" viewBox="0 0 9 8" version="1.1" xmlns="http://www.w3.org/2000/svg" xmlns:xlink="http://www.w3.org/1999/xlink">
    <!-- Generator: Sketch 46.1 (44463) - http://www.bohemiancoding.com/sketch -->
    <title>noun_702748</title>
    <desc>Created with Sketch.</desc>
    <defs></defs>
    <g id="Desktop" stroke="none" stroke-width="1" fill="none" fill-rule="evenodd" stroke-linecap="square">
        <g id="AIANY-Competitions-&amp;-Grants" transform="translate(-59.000000, -421.000000)" stroke="#4A4A4A">
            <g id="Group-3" transform="translate(56.000000, 414.000000)">
                <g id="noun_702748" transform="translate(3.000000, 8.000000)">
                    <g id="Group" transform="translate(0.000000, 0.113550)">
                        <path d="M7.89441779,0.119675843 C6.34463491,1.73620749 4.84710938,3.49005793 3.31618597,5.10136194 L1.0743378,3.3914222 C0.947540481,3.29475444 0.766147189,3.31886666 0.669184537,3.44527834 C0.572221885,3.57169003 0.596407657,3.75253166 0.723204971,3.84919942 L3.17213148,5.7162124 C3.28911805,5.8043267 3.45382095,5.79080728 3.55477622,5.68480349 C5.16379863,4.00648808 6.71637328,2.17540075 8.30857445,0.514620896 C8.3946459,0.426482202 8.41487411,0.293489581 8.35888112,0.183874083 C8.30288812,0.0742585853 8.183103,0.0123521936 8.06098079,0.0299156037 C7.99690298,0.0402758982 7.93821169,0.0719044387 7.89441779,0.119675843 Z" id="Shape"></path>
                    </g>
                </g>
            </g>
        </g>
    </g>
</svg>